<svg width="325" height="53" viewBox="0 0 325 53" fill="none" xmlns="http://www.w3.org/2000/svg">
<path d="M59.8086 25.0117H61.166C62.0189 24.9987 62.6895 24.7741 63.1777 24.3379C63.666 23.9017 63.9102 23.3125 63.9102 22.5703C63.9102 20.9036 63.0801 20.0703 61.4199 20.0703C60.6387 20.0703 60.0137 20.2949 59.5449 20.7441C59.0827 21.1868 58.8516 21.776 58.8516 22.5117H57.0449C57.0449 21.3854 57.4551 20.4512 58.2754 19.709C59.1022 18.9603 60.1504 18.5859 61.4199 18.5859C62.7611 18.5859 63.8125 18.9408 64.5742 19.6504C65.3359 20.36 65.7168 21.3464 65.7168 22.6094C65.7168 23.2279 65.515 23.8268 65.1113 24.4062C64.7142 24.9857 64.1706 25.4186 63.4805 25.7051C64.2617 25.9525 64.8639 26.3626 65.2871 26.9355C65.7168 27.5085 65.9316 28.2083 65.9316 29.0352C65.9316 30.3112 65.515 31.3236 64.6816 32.0723C63.8483 32.821 62.7643 33.1953 61.4297 33.1953C60.0951 33.1953 59.0078 32.834 58.168 32.1113C57.3346 31.3887 56.918 30.4349 56.918 29.25H58.7344C58.7344 29.9987 58.9785 30.5977 59.4668 31.0469C59.9551 31.4961 60.6094 31.7207 61.4297 31.7207C62.3021 31.7207 62.9694 31.4928 63.4316 31.0371C63.8939 30.5814 64.125 29.9271 64.125 29.0742C64.125 28.2474 63.8711 27.6126 63.3633 27.1699C62.8555 26.7272 62.123 26.4993 61.166 26.4863H59.8086V25.0117ZM77.3281 26.9355C77.3281 29.0514 76.9668 30.6237 76.2441 31.6523C75.5215 32.681 74.3919 33.1953 72.8555 33.1953C71.3385 33.1953 70.2155 32.694 69.4863 31.6914C68.7572 30.6823 68.3796 29.1784 68.3535 27.1797V24.7676C68.3535 22.6777 68.7148 21.125 69.4375 20.1094C70.1602 19.0938 71.293 18.5859 72.8359 18.5859C74.3659 18.5859 75.4922 19.0775 76.2148 20.0605C76.9375 21.0371 77.3086 22.5475 77.3281 24.5918V26.9355ZM75.5215 24.4648C75.5215 22.9349 75.3066 21.8216 74.877 21.125C74.4473 20.4219 73.7669 20.0703 72.8359 20.0703C71.9115 20.0703 71.2376 20.4186 70.8145 21.1152C70.3913 21.8118 70.1732 22.8828 70.1602 24.3281V27.2188C70.1602 28.7552 70.3815 29.8913 70.8242 30.627C71.2734 31.3561 71.9505 31.7207 72.8555 31.7207C73.7474 31.7207 74.4082 31.3757 74.8379 30.6855C75.2741 29.9954 75.502 28.9082 75.5215 27.4238V24.4648ZM84.3496 27.6289C84.3496 26.0078 84.7337 24.7057 85.502 23.7227C86.2702 22.7331 87.276 22.2383 88.5195 22.2383C89.7565 22.2383 90.7363 22.6615 91.459 23.5078V18H93.2656V33H91.6055L91.5176 31.8672C90.7949 32.7526 89.7891 33.1953 88.5 33.1953C87.276 33.1953 86.2767 32.694 85.502 31.6914C84.7337 30.6888 84.3496 29.3802 84.3496 27.7656V27.6289ZM86.1562 27.834C86.1562 29.0319 86.4036 29.9694 86.8984 30.6465C87.3932 31.3236 88.0768 31.6621 88.9492 31.6621C90.0951 31.6621 90.9316 31.1478 91.459 30.1191V25.2656C90.9186 24.2695 90.0885 23.7715 88.9688 23.7715C88.0833 23.7715 87.3932 24.1133 86.8984 24.7969C86.4036 25.4805 86.1562 26.4928 86.1562 27.834ZM102.602 33C102.497 32.7917 102.413 32.4206 102.348 31.8867C101.508 32.7591 100.505 33.1953 99.3398 33.1953C98.2982 33.1953 97.4421 32.9023 96.7715 32.3164C96.1074 31.724 95.7754 30.9753 95.7754 30.0703C95.7754 28.9701 96.1921 28.1172 97.0254 27.5117C97.8652 26.8997 99.0436 26.5938 100.561 26.5938H102.318V25.7637C102.318 25.1322 102.13 24.6309 101.752 24.2598C101.374 23.8822 100.818 23.6934 100.082 23.6934C99.4375 23.6934 98.8971 23.8561 98.4609 24.1816C98.0247 24.5072 97.8066 24.901 97.8066 25.3633H95.9902C95.9902 24.8359 96.1758 24.3281 96.5469 23.8398C96.9245 23.3451 97.4323 22.9544 98.0703 22.668C98.7148 22.3815 99.4212 22.2383 100.189 22.2383C101.407 22.2383 102.361 22.5443 103.051 23.1562C103.741 23.7617 104.099 24.5983 104.125 25.666V30.5293C104.125 31.4993 104.249 32.2708 104.496 32.8438V33H102.602ZM99.6035 31.623C100.17 31.623 100.707 31.4766 101.215 31.1836C101.723 30.8906 102.09 30.5098 102.318 30.041V27.873H100.902C98.6888 27.873 97.582 28.5208 97.582 29.8164C97.582 30.3828 97.7708 30.8255 98.1484 31.1445C98.526 31.4635 99.0111 31.623 99.6035 31.623ZM110.258 30.3535L112.719 22.4336H114.652L110.404 34.6309C109.747 36.3887 108.702 37.2676 107.27 37.2676L106.928 37.2383L106.254 37.1113V35.6465L106.742 35.6855C107.354 35.6855 107.829 35.5618 108.168 35.3145C108.513 35.0671 108.796 34.6146 109.018 33.957L109.418 32.8828L105.648 22.4336H107.621L110.258 30.3535ZM123.598 22.4336L123.686 23.6152C124.434 22.6973 125.447 22.2383 126.723 22.2383C128.083 22.2383 129.018 22.7754 129.525 23.8496C130.268 22.7754 131.326 22.2383 132.699 22.2383C133.845 22.2383 134.698 22.5736 135.258 23.2441C135.818 23.9082 136.098 24.9108 136.098 26.252V33H133.266V26.2617C133.266 25.6628 133.148 25.2266 132.914 24.9531C132.68 24.6732 132.266 24.5332 131.674 24.5332C130.827 24.5332 130.242 24.9368 129.916 25.7441L129.926 33H127.104V26.2715C127.104 25.6595 126.983 25.2168 126.742 24.9434C126.501 24.6699 126.091 24.5332 125.512 24.5332C124.711 24.5332 124.132 24.8652 123.773 25.5293V33H120.951V22.4336H123.598ZM137.836 27.6191C137.836 26.571 138.038 25.6367 138.441 24.8164C138.845 23.9961 139.424 23.3613 140.18 22.9121C140.941 22.4629 141.824 22.2383 142.826 22.2383C144.252 22.2383 145.414 22.6745 146.312 23.5469C147.217 24.4193 147.722 25.6042 147.826 27.1016L147.846 27.8242C147.846 29.4453 147.393 30.7474 146.488 31.7305C145.583 32.707 144.369 33.1953 142.846 33.1953C141.322 33.1953 140.105 32.707 139.193 31.7305C138.288 30.7539 137.836 29.4258 137.836 27.7461V27.6191ZM140.658 27.8242C140.658 28.8268 140.847 29.5951 141.225 30.1289C141.602 30.6562 142.143 30.9199 142.846 30.9199C143.529 30.9199 144.063 30.6595 144.447 30.1387C144.831 29.6113 145.023 28.7715 145.023 27.6191C145.023 26.6361 144.831 25.8743 144.447 25.334C144.063 24.7936 143.523 24.5234 142.826 24.5234C142.136 24.5234 141.602 24.7936 141.225 25.334C140.847 25.8678 140.658 26.6979 140.658 27.8242ZM152.182 22.4336L152.27 23.6543C153.025 22.7103 154.037 22.2383 155.307 22.2383C156.426 22.2383 157.26 22.5671 157.807 23.2246C158.354 23.8822 158.633 24.8652 158.646 26.1738V33H155.824V26.2422C155.824 25.6432 155.694 25.2103 155.434 24.9434C155.173 24.6699 154.74 24.5332 154.135 24.5332C153.34 24.5332 152.745 24.8717 152.348 25.5488V33H149.525V22.4336H152.182ZM165.658 33.1953C164.109 33.1953 162.846 32.7201 161.869 31.7695C160.899 30.819 160.414 29.5527 160.414 27.9707V27.6973C160.414 26.6361 160.619 25.6888 161.029 24.8555C161.439 24.0156 162.019 23.3711 162.768 22.9219C163.523 22.4661 164.382 22.2383 165.346 22.2383C166.791 22.2383 167.927 22.694 168.754 23.6055C169.587 24.5169 170.004 25.8092 170.004 27.4824V28.6348H163.275C163.367 29.3249 163.64 29.8783 164.096 30.2949C164.558 30.7116 165.141 30.9199 165.844 30.9199C166.931 30.9199 167.781 30.526 168.393 29.7383L169.779 31.291C169.356 31.89 168.783 32.3587 168.061 32.6973C167.338 33.0293 166.537 33.1953 165.658 33.1953ZM165.336 24.5234C164.776 24.5234 164.32 24.7122 163.969 25.0898C163.624 25.4674 163.402 26.0078 163.305 26.7109H167.23V26.4863C167.217 25.8613 167.048 25.3796 166.723 25.041C166.397 24.696 165.935 24.5234 165.336 24.5234ZM175.424 29.0059L177.377 22.4336H180.404L176.156 34.6406L175.922 35.1973C175.29 36.5775 174.249 37.2676 172.797 37.2676C172.387 37.2676 171.97 37.2057 171.547 37.082V34.9434L171.977 34.9531C172.51 34.9531 172.908 34.8717 173.168 34.709C173.435 34.5462 173.643 34.276 173.793 33.8984L174.125 33.0293L170.424 22.4336H173.461L175.424 29.0059ZM196.02 27.8145C196.02 29.5072 195.658 30.8288 194.936 31.7793C194.213 32.7233 193.204 33.1953 191.908 33.1953C190.762 33.1953 189.848 32.7559 189.164 31.877L189.037 33H186.498V18H189.32V23.3809C189.971 22.6191 190.827 22.2383 191.889 22.2383C193.178 22.2383 194.187 22.7135 194.916 23.6641C195.652 24.6081 196.02 25.9395 196.02 27.6582V27.8145ZM193.197 27.6094C193.197 26.5417 193.028 25.7637 192.689 25.2754C192.351 24.7806 191.846 24.5332 191.176 24.5332C190.277 24.5332 189.659 24.901 189.32 25.6367V29.8066C189.665 30.5488 190.29 30.9199 191.195 30.9199C192.107 30.9199 192.706 30.4707 192.992 29.5723C193.129 29.1426 193.197 28.4883 193.197 27.6094ZM203.891 33C203.76 32.7461 203.666 32.4303 203.607 32.0527C202.924 32.8145 202.035 33.1953 200.941 33.1953C199.906 33.1953 199.047 32.8958 198.363 32.2969C197.686 31.6979 197.348 30.9427 197.348 30.0312C197.348 28.9115 197.761 28.0521 198.588 27.4531C199.421 26.8542 200.622 26.5514 202.191 26.5449H203.49V25.9395C203.49 25.4512 203.363 25.0605 203.109 24.7676C202.862 24.4746 202.468 24.3281 201.928 24.3281C201.452 24.3281 201.078 24.4421 200.805 24.6699C200.538 24.8978 200.404 25.2103 200.404 25.6074H197.582C197.582 24.9954 197.771 24.429 198.148 23.9082C198.526 23.3874 199.06 22.9805 199.75 22.6875C200.44 22.388 201.215 22.2383 202.074 22.2383C203.376 22.2383 204.408 22.5671 205.17 23.2246C205.938 23.8757 206.322 24.7936 206.322 25.9785V30.5586C206.329 31.5612 206.469 32.3197 206.742 32.834V33H203.891ZM201.557 31.0371C201.973 31.0371 202.357 30.946 202.709 30.7637C203.061 30.5749 203.321 30.3242 203.49 30.0117V28.1953H202.436C201.023 28.1953 200.271 28.6836 200.18 29.6602L200.17 29.8262C200.17 30.1777 200.294 30.4674 200.541 30.6953C200.788 30.9232 201.127 31.0371 201.557 31.0371ZM212.885 30.9199C213.406 30.9199 213.829 30.7767 214.154 30.4902C214.48 30.2038 214.649 29.8229 214.662 29.3477H217.309C217.302 30.0638 217.107 30.7214 216.723 31.3203C216.339 31.9128 215.811 32.375 215.141 32.707C214.477 33.0326 213.741 33.1953 212.934 33.1953C211.423 33.1953 210.232 32.7168 209.359 31.7598C208.487 30.7962 208.051 29.4681 208.051 27.7754V27.5898C208.051 25.9622 208.484 24.6634 209.35 23.6934C210.215 22.7233 211.404 22.2383 212.914 22.2383C214.236 22.2383 215.294 22.6159 216.088 23.3711C216.889 24.1198 217.296 25.1191 217.309 26.3691H214.662C214.649 25.8223 214.48 25.3796 214.154 25.041C213.829 24.696 213.399 24.5234 212.865 24.5234C212.208 24.5234 211.71 24.7643 211.371 25.2461C211.039 25.7214 210.873 26.4961 210.873 27.5703V27.8633C210.873 28.9505 211.039 29.7318 211.371 30.207C211.703 30.6823 212.208 30.9199 212.885 30.9199ZM222.758 28.7617L221.742 29.7773V33H218.92V18H221.742V26.3105L222.289 25.6074L224.994 22.4336H228.383L224.564 26.8379L228.715 33H225.473L222.758 28.7617ZM234.174 27.6387C234.174 26.0176 234.558 24.7122 235.326 23.7227C236.101 22.7331 237.143 22.2383 238.451 22.2383C239.61 22.2383 240.512 22.6354 241.156 23.4297L241.273 22.4336H243.832V32.6484C243.832 33.5729 243.62 34.377 243.197 35.0605C242.781 35.7441 242.191 36.265 241.43 36.623C240.668 36.9811 239.776 37.1602 238.754 37.1602C237.979 37.1602 237.224 37.0039 236.488 36.6914C235.753 36.3854 235.196 35.9883 234.818 35.5L236.068 33.7812C236.771 34.569 237.624 34.9629 238.627 34.9629C239.376 34.9629 239.958 34.7611 240.375 34.3574C240.792 33.9603 241 33.3939 241 32.6582V32.0918C240.349 32.8275 239.493 33.1953 238.432 33.1953C237.162 33.1953 236.133 32.7005 235.346 31.7109C234.564 30.7148 234.174 29.3965 234.174 27.7559V27.6387ZM236.996 27.8438C236.996 28.8008 237.188 29.5527 237.572 30.0996C237.956 30.64 238.484 30.9102 239.154 30.9102C240.014 30.9102 240.629 30.5879 241 29.9434V25.5C240.622 24.8555 240.014 24.5332 239.174 24.5332C238.497 24.5332 237.963 24.8099 237.572 25.3633C237.188 25.9167 236.996 26.7435 236.996 27.8438ZM252.338 31.9258C251.641 32.7721 250.678 33.1953 249.447 33.1953C248.314 33.1953 247.449 32.8698 246.85 32.2188C246.257 31.5677 245.954 30.6139 245.941 29.3574V22.4336H248.764V29.2598C248.764 30.36 249.265 30.9102 250.268 30.9102C251.225 30.9102 251.882 30.5781 252.24 29.9141V22.4336H255.072V33H252.416L252.338 31.9258ZM263.324 33C263.194 32.7461 263.1 32.4303 263.041 32.0527C262.357 32.8145 261.469 33.1953 260.375 33.1953C259.34 33.1953 258.48 32.8958 257.797 32.2969C257.12 31.6979 256.781 30.9427 256.781 30.0312C256.781 28.9115 257.195 28.0521 258.021 27.4531C258.855 26.8542 260.056 26.5514 261.625 26.5449H262.924V25.9395C262.924 25.4512 262.797 25.0605 262.543 24.7676C262.296 24.4746 261.902 24.3281 261.361 24.3281C260.886 24.3281 260.512 24.4421 260.238 24.6699C259.971 24.8978 259.838 25.2103 259.838 25.6074H257.016C257.016 24.9954 257.204 24.429 257.582 23.9082C257.96 23.3874 258.493 22.9805 259.184 22.6875C259.874 22.388 260.648 22.2383 261.508 22.2383C262.81 22.2383 263.842 22.5671 264.604 23.2246C265.372 23.8757 265.756 24.7936 265.756 25.9785V30.5586C265.762 31.5612 265.902 32.3197 266.176 32.834V33H263.324ZM260.99 31.0371C261.407 31.0371 261.791 30.946 262.143 30.7637C262.494 30.5749 262.755 30.3242 262.924 30.0117V28.1953H261.869C260.456 28.1953 259.704 28.6836 259.613 29.6602L259.604 29.8262C259.604 30.1777 259.727 30.4674 259.975 30.6953C260.222 30.9232 260.561 31.0371 260.99 31.0371ZM273.861 25.0801C273.477 25.028 273.139 25.002 272.846 25.002C271.778 25.002 271.078 25.3633 270.746 26.0859V33H267.924V22.4336H270.59L270.668 23.6934C271.234 22.7233 272.019 22.2383 273.021 22.2383C273.334 22.2383 273.627 22.2806 273.9 22.3652L273.861 25.0801ZM281.059 33C280.928 32.7461 280.834 32.4303 280.775 32.0527C280.092 32.8145 279.203 33.1953 278.109 33.1953C277.074 33.1953 276.215 32.8958 275.531 32.2969C274.854 31.6979 274.516 30.9427 274.516 30.0312C274.516 28.9115 274.929 28.0521 275.756 27.4531C276.589 26.8542 277.79 26.5514 279.359 26.5449H280.658V25.9395C280.658 25.4512 280.531 25.0605 280.277 24.7676C280.03 24.4746 279.636 24.3281 279.096 24.3281C278.62 24.3281 278.246 24.4421 277.973 24.6699C277.706 24.8978 277.572 25.2103 277.572 25.6074H274.75C274.75 24.9954 274.939 24.429 275.316 23.9082C275.694 23.3874 276.228 22.9805 276.918 22.6875C277.608 22.388 278.383 22.2383 279.242 22.2383C280.544 22.2383 281.576 22.5671 282.338 23.2246C283.106 23.8757 283.49 24.7936 283.49 25.9785V30.5586C283.497 31.5612 283.637 32.3197 283.91 32.834V33H281.059ZM278.725 31.0371C279.141 31.0371 279.525 30.946 279.877 30.7637C280.229 30.5749 280.489 30.3242 280.658 30.0117V28.1953H279.604C278.191 28.1953 277.439 28.6836 277.348 29.6602L277.338 29.8262C277.338 30.1777 277.462 30.4674 277.709 30.6953C277.956 30.9232 278.295 31.0371 278.725 31.0371ZM288.256 22.4336L288.344 23.6543C289.099 22.7103 290.111 22.2383 291.381 22.2383C292.501 22.2383 293.334 22.5671 293.881 23.2246C294.428 23.8822 294.708 24.8652 294.721 26.1738V33H291.898V26.2422C291.898 25.6432 291.768 25.2103 291.508 24.9434C291.247 24.6699 290.814 24.5332 290.209 24.5332C289.415 24.5332 288.819 24.8717 288.422 25.5488V33H285.6V22.4336H288.256ZM300.248 19.8359V22.4336H302.055V24.5039H300.248V29.7773C300.248 30.168 300.323 30.4479 300.473 30.6172C300.622 30.7865 300.909 30.8711 301.332 30.8711C301.645 30.8711 301.921 30.8483 302.162 30.8027V32.9414C301.609 33.1107 301.039 33.1953 300.453 33.1953C298.474 33.1953 297.465 32.196 297.426 30.1973V24.5039H295.883V22.4336H297.426V19.8359H300.248ZM308.49 33.1953C306.941 33.1953 305.678 32.7201 304.701 31.7695C303.731 30.819 303.246 29.5527 303.246 27.9707V27.6973C303.246 26.6361 303.451 25.6888 303.861 24.8555C304.271 24.0156 304.851 23.3711 305.6 22.9219C306.355 22.4661 307.214 22.2383 308.178 22.2383C309.623 22.2383 310.759 22.694 311.586 23.6055C312.419 24.5169 312.836 25.8092 312.836 27.4824V28.6348H306.107C306.199 29.3249 306.472 29.8783 306.928 30.2949C307.39 30.7116 307.973 30.9199 308.676 30.9199C309.763 30.9199 310.613 30.526 311.225 29.7383L312.611 31.291C312.188 31.89 311.615 32.3587 310.893 32.6973C310.17 33.0293 309.369 33.1953 308.49 33.1953ZM308.168 24.5234C307.608 24.5234 307.152 24.7122 306.801 25.0898C306.456 25.4674 306.234 26.0078 306.137 26.7109H310.062V26.4863C310.049 25.8613 309.88 25.3796 309.555 25.041C309.229 24.696 308.767 24.5234 308.168 24.5234ZM319.311 33.1953C317.761 33.1953 316.498 32.7201 315.521 31.7695C314.551 30.819 314.066 29.5527 314.066 27.9707V27.6973C314.066 26.6361 314.271 25.6888 314.682 24.8555C315.092 24.0156 315.671 23.3711 316.42 22.9219C317.175 22.4661 318.035 22.2383 318.998 22.2383C320.443 22.2383 321.579 22.694 322.406 23.6055C323.24 24.5169 323.656 25.8092 323.656 27.4824V28.6348H316.928C317.019 29.3249 317.292 29.8783 317.748 30.2949C318.21 30.7116 318.793 30.9199 319.496 30.9199C320.583 30.9199 321.433 30.526 322.045 29.7383L323.432 31.291C323.008 31.89 322.436 32.3587 321.713 32.6973C320.99 33.0293 320.189 33.1953 319.311 33.1953ZM318.988 24.5234C318.428 24.5234 317.973 24.7122 317.621 25.0898C317.276 25.4674 317.055 26.0078 316.957 26.7109H320.883V26.4863C320.87 25.8613 320.701 25.3796 320.375 25.041C320.049 24.696 319.587 24.5234 318.988 24.5234Z" fill="white"/>
<path d="M20.5 6C9.17819 6 0 15.1782 0 26.5C0 37.8218 9.17819 47 20.5 47C31.8218 47 41 37.8218 41 26.5C41 15.1782 31.8218 6 20.5 6ZM20.5 10.4543C29.3618 10.4543 36.5432 17.6404 36.5432 26.5C36.5432 35.3596 29.3618 42.5432 20.5 42.5432C11.6382 42.5432 4.45684 35.3596 4.45684 26.5C4.45687 17.6404 11.6382 10.4543 20.5 10.4543ZM28.3552 16.7655L16.4736 28.6496L12.6198 24.7958L8.83861 28.5745L12.6924 32.4283L16.4986 36.2345L20.2773 32.4533L32.1614 20.5717L28.3552 16.7655Z" fill="white"/>
</svg>
