<svg width="324" height="53" viewBox="0 0 324 53" fill="none" xmlns="http://www.w3.org/2000/svg">
<path d="M64.6426 29.2695C64.6426 28.7161 64.4473 28.293 64.0566 28C63.666 27.7005 62.9629 27.388 61.9473 27.0625C60.9316 26.7305 60.1276 26.4049 59.5352 26.0859C57.9206 25.2135 57.1133 24.0384 57.1133 22.5605C57.1133 21.7923 57.3281 21.1087 57.7578 20.5098C58.194 19.9043 58.8158 19.4323 59.623 19.0938C60.4368 18.7552 61.3483 18.5859 62.3574 18.5859C63.373 18.5859 64.278 18.7715 65.0723 19.1426C65.8665 19.5072 66.4818 20.0247 66.918 20.6953C67.3607 21.3659 67.582 22.1276 67.582 22.9805H64.6523C64.6523 22.3294 64.4473 21.8249 64.0371 21.4668C63.627 21.1022 63.0508 20.9199 62.3086 20.9199C61.5924 20.9199 61.0358 21.0729 60.6387 21.3789C60.2415 21.6784 60.043 22.0755 60.043 22.5703C60.043 23.0326 60.2741 23.4199 60.7363 23.7324C61.2051 24.0449 61.8919 24.3379 62.7969 24.6113C64.4635 25.1126 65.6777 25.7344 66.4395 26.4766C67.2012 27.2188 67.582 28.1432 67.582 29.25C67.582 30.4805 67.1165 31.4473 66.1855 32.1504C65.2546 32.847 64.0013 33.1953 62.4258 33.1953C61.332 33.1953 60.3359 32.9967 59.4375 32.5996C58.5391 32.196 57.8522 31.6458 57.377 30.9492C56.9082 30.2526 56.6738 29.4453 56.6738 28.5273H59.6133C59.6133 30.0964 60.5508 30.8809 62.4258 30.8809C63.1224 30.8809 63.666 30.7409 64.0566 30.4609C64.4473 30.1745 64.6426 29.7773 64.6426 29.2695ZM75.5117 33C75.3815 32.7461 75.2871 32.4303 75.2285 32.0527C74.5449 32.8145 73.6562 33.1953 72.5625 33.1953C71.5273 33.1953 70.668 32.8958 69.9844 32.2969C69.3073 31.6979 68.9688 30.9427 68.9688 30.0312C68.9688 28.9115 69.3822 28.0521 70.209 27.4531C71.0423 26.8542 72.2435 26.5514 73.8125 26.5449H75.1113V25.9395C75.1113 25.4512 74.9844 25.0605 74.7305 24.7676C74.4831 24.4746 74.0892 24.3281 73.5488 24.3281C73.0736 24.3281 72.6992 24.4421 72.4258 24.6699C72.1589 24.8978 72.0254 25.2103 72.0254 25.6074H69.2031C69.2031 24.9954 69.3919 24.429 69.7695 23.9082C70.1471 23.3874 70.681 22.9805 71.3711 22.6875C72.0612 22.388 72.8359 22.2383 73.6953 22.2383C74.9974 22.2383 76.0293 22.5671 76.791 23.2246C77.5592 23.8757 77.9434 24.7936 77.9434 25.9785V30.5586C77.9499 31.5612 78.0898 32.3197 78.3633 32.834V33H75.5117ZM73.1777 31.0371C73.5944 31.0371 73.9785 30.946 74.3301 30.7637C74.6816 30.5749 74.9421 30.3242 75.1113 30.0117V28.1953H74.0566C72.6439 28.1953 71.8919 28.6836 71.8008 29.6602L71.791 29.8262C71.791 30.1777 71.9147 30.4674 72.1621 30.6953C72.4095 30.9232 72.748 31.0371 73.1777 31.0371ZM80.8828 33V24.5039H79.3105V22.4336H80.8828V21.5352C80.8828 20.3503 81.2214 19.4323 81.8984 18.7812C82.582 18.1237 83.5358 17.7949 84.7598 17.7949C85.1504 17.7949 85.6289 17.86 86.1953 17.9902L86.166 20.1777C85.9316 20.1191 85.6452 20.0898 85.3066 20.0898C84.2454 20.0898 83.7148 20.5879 83.7148 21.584V22.4336H85.8145V24.5039H83.7148V33H80.8828ZM91.9082 33.1953C90.3587 33.1953 89.0957 32.7201 88.1191 31.7695C87.1491 30.819 86.6641 29.5527 86.6641 27.9707V27.6973C86.6641 26.6361 86.8691 25.6888 87.2793 24.8555C87.6895 24.0156 88.2689 23.3711 89.0176 22.9219C89.7728 22.4661 90.6322 22.2383 91.5957 22.2383C93.041 22.2383 94.1771 22.694 95.0039 23.6055C95.8372 24.5169 96.2539 25.8092 96.2539 27.4824V28.6348H89.5254C89.6165 29.3249 89.89 29.8783 90.3457 30.2949C90.8079 30.7116 91.3906 30.9199 92.0938 30.9199C93.181 30.9199 94.0306 30.526 94.6426 29.7383L96.0293 31.291C95.6061 31.89 95.0332 32.3587 94.3105 32.6973C93.5879 33.0293 92.7871 33.1953 91.9082 33.1953ZM91.5859 24.5234C91.026 24.5234 90.5703 24.7122 90.2188 25.0898C89.8737 25.4674 89.6523 26.0078 89.5547 26.7109H93.4805V26.4863C93.4674 25.8613 93.2982 25.3796 92.9727 25.041C92.6471 24.696 92.1849 24.5234 91.5859 24.5234ZM102.455 29.1719C102.455 28.5143 102.637 27.9056 103.002 27.3457C103.373 26.7858 104.05 26.1641 105.033 25.4805C104.61 24.9141 104.278 24.3835 104.037 23.8887C103.796 23.3874 103.676 22.8665 103.676 22.3262C103.676 21.2194 104.024 20.321 104.721 19.6309C105.424 18.9342 106.368 18.5859 107.553 18.5859C108.614 18.5859 109.483 18.9017 110.16 19.5332C110.844 20.1647 111.186 20.9525 111.186 21.8965C111.186 23.0293 110.613 24.0286 109.467 24.8945L108.373 25.6855L110.824 28.5371C111.208 27.7819 111.4 26.9486 111.4 26.0371H113.803C113.803 27.8861 113.376 29.3835 112.523 30.5293L114.652 33H111.449L110.717 32.1602C109.669 32.8503 108.464 33.1953 107.104 33.1953C105.697 33.1953 104.571 32.8275 103.725 32.0918C102.878 31.3496 102.455 30.3763 102.455 29.1719ZM107.24 30.9297C107.917 30.9297 108.559 30.7409 109.164 30.3633L106.361 27.1211L106.156 27.2676C105.577 27.7624 105.287 28.3451 105.287 29.0156C105.287 29.582 105.466 30.0443 105.824 30.4023C106.189 30.7539 106.661 30.9297 107.24 30.9297ZM106.205 22.2871C106.205 22.7754 106.492 23.3906 107.064 24.1328L107.816 23.6348C108.201 23.3874 108.464 23.1465 108.607 22.9121C108.757 22.6777 108.832 22.3978 108.832 22.0723C108.832 21.7467 108.712 21.4635 108.471 21.2227C108.23 20.9818 107.921 20.8613 107.543 20.8613C107.139 20.8613 106.814 20.9915 106.566 21.252C106.326 21.5124 106.205 21.8574 106.205 22.2871ZM128.51 29.2695C128.51 28.7161 128.314 28.293 127.924 28C127.533 27.7005 126.83 27.388 125.814 27.0625C124.799 26.7305 123.995 26.4049 123.402 26.0859C121.788 25.2135 120.98 24.0384 120.98 22.5605C120.98 21.7923 121.195 21.1087 121.625 20.5098C122.061 19.9043 122.683 19.4323 123.49 19.0938C124.304 18.7552 125.215 18.5859 126.225 18.5859C127.24 18.5859 128.145 18.7715 128.939 19.1426C129.734 19.5072 130.349 20.0247 130.785 20.6953C131.228 21.3659 131.449 22.1276 131.449 22.9805H128.52C128.52 22.3294 128.314 21.8249 127.904 21.4668C127.494 21.1022 126.918 20.9199 126.176 20.9199C125.46 20.9199 124.903 21.0729 124.506 21.3789C124.109 21.6784 123.91 22.0755 123.91 22.5703C123.91 23.0326 124.141 23.4199 124.604 23.7324C125.072 24.0449 125.759 24.3379 126.664 24.6113C128.331 25.1126 129.545 25.7344 130.307 26.4766C131.068 27.2188 131.449 28.1432 131.449 29.25C131.449 30.4805 130.984 31.4473 130.053 32.1504C129.122 32.847 127.868 33.1953 126.293 33.1953C125.199 33.1953 124.203 32.9967 123.305 32.5996C122.406 32.196 121.719 31.6458 121.244 30.9492C120.775 30.2526 120.541 29.4453 120.541 28.5273H123.48C123.48 30.0964 124.418 30.8809 126.293 30.8809C126.99 30.8809 127.533 30.7409 127.924 30.4609C128.314 30.1745 128.51 29.7773 128.51 29.2695ZM138.119 33.1953C136.57 33.1953 135.307 32.7201 134.33 31.7695C133.36 30.819 132.875 29.5527 132.875 27.9707V27.6973C132.875 26.6361 133.08 25.6888 133.49 24.8555C133.9 24.0156 134.48 23.3711 135.229 22.9219C135.984 22.4661 136.843 22.2383 137.807 22.2383C139.252 22.2383 140.388 22.694 141.215 23.6055C142.048 24.5169 142.465 25.8092 142.465 27.4824V28.6348H135.736C135.827 29.3249 136.101 29.8783 136.557 30.2949C137.019 30.7116 137.602 30.9199 138.305 30.9199C139.392 30.9199 140.242 30.526 140.854 29.7383L142.24 31.291C141.817 31.89 141.244 32.3587 140.521 32.6973C139.799 33.0293 138.998 33.1953 138.119 33.1953ZM137.797 24.5234C137.237 24.5234 136.781 24.7122 136.43 25.0898C136.085 25.4674 135.863 26.0078 135.766 26.7109H139.691V26.4863C139.678 25.8613 139.509 25.3796 139.184 25.041C138.858 24.696 138.396 24.5234 137.797 24.5234ZM148.471 30.9199C148.992 30.9199 149.415 30.7767 149.74 30.4902C150.066 30.2038 150.235 29.8229 150.248 29.3477H152.895C152.888 30.0638 152.693 30.7214 152.309 31.3203C151.924 31.9128 151.397 32.375 150.727 32.707C150.062 33.0326 149.327 33.1953 148.52 33.1953C147.009 33.1953 145.818 32.7168 144.945 31.7598C144.073 30.7962 143.637 29.4681 143.637 27.7754V27.5898C143.637 25.9622 144.07 24.6634 144.936 23.6934C145.801 22.7233 146.99 22.2383 148.5 22.2383C149.822 22.2383 150.88 22.6159 151.674 23.3711C152.475 24.1198 152.882 25.1191 152.895 26.3691H150.248C150.235 25.8223 150.066 25.3796 149.74 25.041C149.415 24.696 148.985 24.5234 148.451 24.5234C147.794 24.5234 147.296 24.7643 146.957 25.2461C146.625 25.7214 146.459 26.4961 146.459 27.5703V27.8633C146.459 28.9505 146.625 29.7318 146.957 30.207C147.289 30.6823 147.794 30.9199 148.471 30.9199ZM160.834 31.9258C160.137 32.7721 159.174 33.1953 157.943 33.1953C156.811 33.1953 155.945 32.8698 155.346 32.2188C154.753 31.5677 154.451 30.6139 154.438 29.3574V22.4336H157.26V29.2598C157.26 30.36 157.761 30.9102 158.764 30.9102C159.721 30.9102 160.378 30.5781 160.736 29.9141V22.4336H163.568V33H160.912L160.834 31.9258ZM171.635 25.0801C171.251 25.028 170.912 25.002 170.619 25.002C169.551 25.002 168.852 25.3633 168.52 26.0859V33H165.697V22.4336H168.363L168.441 23.6934C169.008 22.7233 169.792 22.2383 170.795 22.2383C171.107 22.2383 171.4 22.2806 171.674 22.3652L171.635 25.0801ZM177.67 33.1953C176.12 33.1953 174.857 32.7201 173.881 31.7695C172.911 30.819 172.426 29.5527 172.426 27.9707V27.6973C172.426 26.6361 172.631 25.6888 173.041 24.8555C173.451 24.0156 174.031 23.3711 174.779 22.9219C175.535 22.4661 176.394 22.2383 177.357 22.2383C178.803 22.2383 179.939 22.694 180.766 23.6055C181.599 24.5169 182.016 25.8092 182.016 27.4824V28.6348H175.287C175.378 29.3249 175.652 29.8783 176.107 30.2949C176.57 30.7116 177.152 30.9199 177.855 30.9199C178.943 30.9199 179.792 30.526 180.404 29.7383L181.791 31.291C181.368 31.89 180.795 32.3587 180.072 32.6973C179.35 33.0293 178.549 33.1953 177.67 33.1953ZM177.348 24.5234C176.788 24.5234 176.332 24.7122 175.98 25.0898C175.635 25.4674 175.414 26.0078 175.316 26.7109H179.242V26.4863C179.229 25.8613 179.06 25.3796 178.734 25.041C178.409 24.696 177.947 24.5234 177.348 24.5234ZM188.393 27.6191C188.393 26.584 188.594 25.653 188.998 24.8262C189.408 23.9993 189.975 23.3613 190.697 22.9121C191.426 22.4629 192.257 22.2383 193.188 22.2383C194.626 22.2383 195.788 22.7363 196.674 23.7324C197.566 24.7285 198.012 26.0534 198.012 27.707V27.834C198.012 28.8626 197.813 29.7871 197.416 30.6074C197.025 31.4212 196.462 32.056 195.727 32.5117C194.997 32.9674 194.158 33.1953 193.207 33.1953C191.775 33.1953 190.613 32.6973 189.721 31.7012C188.835 30.7051 188.393 29.3867 188.393 27.7461V27.6191ZM190.209 27.834C190.209 29.0059 190.479 29.9466 191.02 30.6562C191.566 31.3659 192.296 31.7207 193.207 31.7207C194.125 31.7207 194.854 31.3626 195.395 30.6465C195.935 29.9238 196.205 28.9147 196.205 27.6191C196.205 26.4603 195.928 25.5228 195.375 24.8066C194.828 24.084 194.099 23.7227 193.188 23.7227C192.296 23.7227 191.576 24.0775 191.029 24.7871C190.482 25.4967 190.209 26.5124 190.209 27.834ZM201.986 22.4336L202.045 23.7617C202.852 22.7461 203.907 22.2383 205.209 22.2383C207.442 22.2383 208.568 23.498 208.588 26.0176V33H206.781V26.0078C206.775 25.2461 206.599 24.6829 206.254 24.3184C205.915 23.9538 205.385 23.7715 204.662 23.7715C204.076 23.7715 203.562 23.9277 203.119 24.2402C202.676 24.5527 202.331 24.9629 202.084 25.4707V33H200.277V22.4336H201.986ZM213.275 33H211.469V18H213.275V33ZM218.139 33H216.332V22.4336H218.139V33ZM216.186 19.6309C216.186 19.3379 216.273 19.0905 216.449 18.8887C216.632 18.6868 216.898 18.5859 217.25 18.5859C217.602 18.5859 217.868 18.6868 218.051 18.8887C218.233 19.0905 218.324 19.3379 218.324 19.6309C218.324 19.9238 218.233 20.168 218.051 20.3633C217.868 20.5586 217.602 20.6562 217.25 20.6562C216.898 20.6562 216.632 20.5586 216.449 20.3633C216.273 20.168 216.186 19.9238 216.186 19.6309ZM222.748 22.4336L222.807 23.7617C223.614 22.7461 224.669 22.2383 225.971 22.2383C228.204 22.2383 229.33 23.498 229.35 26.0176V33H227.543V26.0078C227.536 25.2461 227.361 24.6829 227.016 24.3184C226.677 23.9538 226.146 23.7715 225.424 23.7715C224.838 23.7715 224.324 23.9277 223.881 24.2402C223.438 24.5527 223.093 24.9629 222.846 25.4707V33H221.039V22.4336H222.748ZM236.459 33.1953C235.027 33.1953 233.861 32.7266 232.963 31.7891C232.064 30.8451 231.615 29.5853 231.615 28.0098V27.6777C231.615 26.6296 231.814 25.6953 232.211 24.875C232.615 24.0482 233.174 23.4036 233.891 22.9414C234.613 22.4727 235.395 22.2383 236.234 22.2383C237.608 22.2383 238.676 22.6908 239.438 23.5957C240.199 24.5007 240.58 25.7962 240.58 27.4824V28.2344H233.422C233.448 29.276 233.751 30.1191 234.33 30.7637C234.916 31.4017 235.658 31.7207 236.557 31.7207C237.195 31.7207 237.735 31.5905 238.178 31.3301C238.62 31.0697 239.008 30.7246 239.34 30.2949L240.443 31.1543C239.558 32.515 238.23 33.1953 236.459 33.1953ZM236.234 23.7227C235.505 23.7227 234.893 23.9896 234.398 24.5234C233.904 25.0508 233.598 25.793 233.48 26.75H238.773V26.6133C238.721 25.6953 238.474 24.9857 238.031 24.4844C237.589 23.9766 236.99 23.7227 236.234 23.7227ZM256.566 27.834C256.566 29.4421 256.199 30.7376 255.463 31.7207C254.727 32.7038 253.731 33.1953 252.475 33.1953C251.192 33.1953 250.183 32.7884 249.447 31.9746V37.0625H247.641V22.4336H249.291L249.379 23.6055C250.115 22.694 251.137 22.2383 252.445 22.2383C253.715 22.2383 254.717 22.7168 255.453 23.6738C256.195 24.6309 256.566 25.9622 256.566 27.668V27.834ZM254.76 27.6289C254.76 26.4375 254.506 25.4967 253.998 24.8066C253.49 24.1165 252.794 23.7715 251.908 23.7715C250.814 23.7715 249.994 24.2565 249.447 25.2266V30.2754C249.988 31.2389 250.814 31.7207 251.928 31.7207C252.794 31.7207 253.48 31.3789 253.988 30.6953C254.503 30.0052 254.76 28.9831 254.76 27.6289ZM265.395 33C265.29 32.7917 265.206 32.4206 265.141 31.8867C264.301 32.7591 263.298 33.1953 262.133 33.1953C261.091 33.1953 260.235 32.9023 259.564 32.3164C258.9 31.724 258.568 30.9753 258.568 30.0703C258.568 28.9701 258.985 28.1172 259.818 27.5117C260.658 26.8997 261.837 26.5938 263.354 26.5938H265.111V25.7637C265.111 25.1322 264.923 24.6309 264.545 24.2598C264.167 23.8822 263.611 23.6934 262.875 23.6934C262.23 23.6934 261.69 23.8561 261.254 24.1816C260.818 24.5072 260.6 24.901 260.6 25.3633H258.783C258.783 24.8359 258.969 24.3281 259.34 23.8398C259.717 23.3451 260.225 22.9544 260.863 22.668C261.508 22.3815 262.214 22.2383 262.982 22.2383C264.2 22.2383 265.154 22.5443 265.844 23.1562C266.534 23.7617 266.892 24.5983 266.918 25.666V30.5293C266.918 31.4993 267.042 32.2708 267.289 32.8438V33H265.395ZM262.396 31.623C262.963 31.623 263.5 31.4766 264.008 31.1836C264.516 30.8906 264.883 30.5098 265.111 30.041V27.873H263.695C261.482 27.873 260.375 28.5208 260.375 29.8164C260.375 30.3828 260.564 30.8255 260.941 31.1445C261.319 31.4635 261.804 31.623 262.396 31.623ZM273.051 30.3535L275.512 22.4336H277.445L273.197 34.6309C272.54 36.3887 271.495 37.2676 270.062 37.2676L269.721 37.2383L269.047 37.1113V35.6465L269.535 35.6855C270.147 35.6855 270.622 35.5618 270.961 35.3145C271.306 35.0671 271.589 34.6146 271.811 33.957L272.211 32.8828L268.441 22.4336H270.414L273.051 30.3535ZM280.766 22.4336L280.814 23.6055C281.589 22.694 282.634 22.2383 283.949 22.2383C285.427 22.2383 286.433 22.8047 286.967 23.9375C287.318 23.4297 287.774 23.0195 288.334 22.707C288.9 22.3945 289.568 22.2383 290.336 22.2383C292.654 22.2383 293.832 23.4655 293.871 25.9199V33H292.064V26.0273C292.064 25.2721 291.892 24.709 291.547 24.3379C291.202 23.9603 290.622 23.7715 289.809 23.7715C289.138 23.7715 288.581 23.9733 288.139 24.377C287.696 24.7741 287.439 25.3112 287.367 25.9883V33H285.551V26.0762C285.551 24.5397 284.799 23.7715 283.295 23.7715C282.11 23.7715 281.299 24.276 280.863 25.2852V33H279.057V22.4336H280.766ZM300.99 33.1953C299.558 33.1953 298.393 32.7266 297.494 31.7891C296.596 30.8451 296.146 29.5853 296.146 28.0098V27.6777C296.146 26.6296 296.345 25.6953 296.742 24.875C297.146 24.0482 297.706 23.4036 298.422 22.9414C299.145 22.4727 299.926 22.2383 300.766 22.2383C302.139 22.2383 303.207 22.6908 303.969 23.5957C304.73 24.5007 305.111 25.7962 305.111 27.4824V28.2344H297.953C297.979 29.276 298.282 30.1191 298.861 30.7637C299.447 31.4017 300.189 31.7207 301.088 31.7207C301.726 31.7207 302.266 31.5905 302.709 31.3301C303.152 31.0697 303.539 30.7246 303.871 30.2949L304.975 31.1543C304.089 32.515 302.761 33.1953 300.99 33.1953ZM300.766 23.7227C300.036 23.7227 299.424 23.9896 298.93 24.5234C298.435 25.0508 298.129 25.793 298.012 26.75H303.305V26.6133C303.253 25.6953 303.005 24.9857 302.562 24.4844C302.12 23.9766 301.521 23.7227 300.766 23.7227ZM308.92 22.4336L308.979 23.7617C309.786 22.7461 310.84 22.2383 312.143 22.2383C314.376 22.2383 315.502 23.498 315.521 26.0176V33H313.715V26.0078C313.708 25.2461 313.533 24.6829 313.188 24.3184C312.849 23.9538 312.318 23.7715 311.596 23.7715C311.01 23.7715 310.495 23.9277 310.053 24.2402C309.61 24.5527 309.265 24.9629 309.018 25.4707V33H307.211V22.4336H308.92ZM320.697 19.875V22.4336H322.67V23.8301H320.697V30.3828C320.697 30.806 320.785 31.125 320.961 31.3398C321.137 31.5482 321.436 31.6523 321.859 31.6523C322.068 31.6523 322.354 31.6133 322.719 31.5352V33C322.243 33.1302 321.781 33.1953 321.332 33.1953C320.525 33.1953 319.916 32.9512 319.506 32.4629C319.096 31.9746 318.891 31.2812 318.891 30.3828V23.8301H316.967V22.4336H318.891V19.875H320.697Z" fill="white"/>
<path fill-rule="evenodd" clip-rule="evenodd" d="M0 26.5C0 15.1782 9.17819 6 20.5 6C31.8218 6 41 15.1782 41 26.5C41 37.8218 31.8218 47 20.5 47C9.17819 47 0 37.8218 0 26.5ZM36.5432 26.5C36.5432 17.6404 29.3618 10.4543 20.5 10.4543C11.6382 10.4543 4.45687 17.6404 4.45684 26.5C4.45684 35.3596 11.6382 42.5432 20.5 42.5432C29.3618 42.5432 36.5432 35.3596 36.5432 26.5ZM26.4314 20.6234V23.8214C27.7024 23.8214 28.9734 25.1006 28.9734 26.593V34.055C28.9734 35.3342 27.7024 36.6134 26.2196 36.6134H14.5687C13.2977 36.6134 12.0267 35.3342 12.0267 33.8418V26.3798C12.0267 25.1006 13.2977 23.8214 14.5687 23.8214V20.6234C14.5687 17.6386 17.5344 15.2934 20.5001 15.2934C23.4657 15.2934 26.4314 17.6386 26.4314 20.6234ZM17.3226 23.8214H23.6776V20.6234C23.6776 18.9178 22.1947 17.8518 20.5001 17.8518C18.8054 17.8518 17.3226 18.9178 17.3226 20.6234V23.8214Z" fill="white"/>
</svg>
