<svg width="342" height="53" viewBox="0 0 342 53" fill="none" xmlns="http://www.w3.org/2000/svg">
<path d="M64.6426 29.2695C64.6426 28.7161 64.4473 28.293 64.0566 28C63.666 27.7005 62.9629 27.388 61.9473 27.0625C60.9316 26.7305 60.1276 26.4049 59.5352 26.0859C57.9206 25.2135 57.1133 24.0384 57.1133 22.5605C57.1133 21.7923 57.3281 21.1087 57.7578 20.5098C58.194 19.9043 58.8158 19.4323 59.623 19.0938C60.4368 18.7552 61.3483 18.5859 62.3574 18.5859C63.373 18.5859 64.278 18.7715 65.0723 19.1426C65.8665 19.5072 66.4818 20.0247 66.918 20.6953C67.3607 21.3659 67.582 22.1276 67.582 22.9805H64.6523C64.6523 22.3294 64.4473 21.8249 64.0371 21.4668C63.627 21.1022 63.0508 20.9199 62.3086 20.9199C61.5924 20.9199 61.0358 21.0729 60.6387 21.3789C60.2415 21.6784 60.043 22.0755 60.043 22.5703C60.043 23.0326 60.2741 23.4199 60.7363 23.7324C61.2051 24.0449 61.8919 24.3379 62.7969 24.6113C64.4635 25.1126 65.6777 25.7344 66.4395 26.4766C67.2012 27.2188 67.582 28.1432 67.582 29.25C67.582 30.4805 67.1165 31.4473 66.1855 32.1504C65.2546 32.847 64.0013 33.1953 62.4258 33.1953C61.332 33.1953 60.3359 32.9967 59.4375 32.5996C58.5391 32.196 57.8522 31.6458 57.377 30.9492C56.9082 30.2526 56.6738 29.4453 56.6738 28.5273H59.6133C59.6133 30.0964 60.5508 30.8809 62.4258 30.8809C63.1224 30.8809 63.666 30.7409 64.0566 30.4609C64.4473 30.1745 64.6426 29.7773 64.6426 29.2695ZM75.7168 31.9258C75.0202 32.7721 74.0566 33.1953 72.8262 33.1953C71.6934 33.1953 70.8275 32.8698 70.2285 32.2188C69.6361 31.5677 69.3333 30.6139 69.3203 29.3574V22.4336H72.1426V29.2598C72.1426 30.36 72.6439 30.9102 73.6465 30.9102C74.6035 30.9102 75.2611 30.5781 75.6191 29.9141V22.4336H78.4512V33H75.7949L75.7168 31.9258ZM90.0918 27.8145C90.0918 29.4421 89.7207 30.7474 88.9785 31.7305C88.2428 32.707 87.2467 33.1953 85.9902 33.1953C84.9225 33.1953 84.0599 32.8242 83.4023 32.082V37.0625H80.5801V22.4336H83.1973L83.2949 23.4688C83.9785 22.6484 84.8704 22.2383 85.9707 22.2383C87.2728 22.2383 88.2852 22.7201 89.0078 23.6836C89.7305 24.6471 90.0918 25.9753 90.0918 27.668V27.8145ZM87.2695 27.6094C87.2695 26.6263 87.0938 25.8678 86.7422 25.334C86.3971 24.8001 85.8926 24.5332 85.2285 24.5332C84.3431 24.5332 83.7344 24.8717 83.4023 25.5488V29.875C83.7474 30.5716 84.3626 30.9199 85.248 30.9199C86.5957 30.9199 87.2695 29.8164 87.2695 27.6094ZM101.361 27.8145C101.361 29.4421 100.99 30.7474 100.248 31.7305C99.5124 32.707 98.5163 33.1953 97.2598 33.1953C96.1921 33.1953 95.3294 32.8242 94.6719 32.082V37.0625H91.8496V22.4336H94.4668L94.5645 23.4688C95.248 22.6484 96.14 22.2383 97.2402 22.2383C98.5423 22.2383 99.5547 22.7201 100.277 23.6836C101 24.6471 101.361 25.9753 101.361 27.668V27.8145ZM98.5391 27.6094C98.5391 26.6263 98.3633 25.8678 98.0117 25.334C97.6667 24.8001 97.1621 24.5332 96.498 24.5332C95.6126 24.5332 95.0039 24.8717 94.6719 25.5488V29.875C95.0169 30.5716 95.6322 30.9199 96.5176 30.9199C97.8652 30.9199 98.5391 29.8164 98.5391 27.6094ZM102.68 27.6191C102.68 26.571 102.882 25.6367 103.285 24.8164C103.689 23.9961 104.268 23.3613 105.023 22.9121C105.785 22.4629 106.667 22.2383 107.67 22.2383C109.096 22.2383 110.258 22.6745 111.156 23.5469C112.061 24.4193 112.566 25.6042 112.67 27.1016L112.689 27.8242C112.689 29.4453 112.237 30.7474 111.332 31.7305C110.427 32.707 109.213 33.1953 107.689 33.1953C106.166 33.1953 104.949 32.707 104.037 31.7305C103.132 30.7539 102.68 29.4258 102.68 27.7461V27.6191ZM105.502 27.8242C105.502 28.8268 105.691 29.5951 106.068 30.1289C106.446 30.6562 106.986 30.9199 107.689 30.9199C108.373 30.9199 108.907 30.6595 109.291 30.1387C109.675 29.6113 109.867 28.7715 109.867 27.6191C109.867 26.6361 109.675 25.8743 109.291 25.334C108.907 24.7936 108.367 24.5234 107.67 24.5234C106.98 24.5234 106.446 24.7936 106.068 25.334C105.691 25.8678 105.502 26.6979 105.502 27.8242ZM120.365 25.0801C119.981 25.028 119.643 25.002 119.35 25.002C118.282 25.002 117.582 25.3633 117.25 26.0859V33H114.428V22.4336H117.094L117.172 23.6934C117.738 22.7233 118.523 22.2383 119.525 22.2383C119.838 22.2383 120.131 22.2806 120.404 22.3652L120.365 25.0801ZM125.6 19.8359V22.4336H127.406V24.5039H125.6V29.7773C125.6 30.168 125.674 30.4479 125.824 30.6172C125.974 30.7865 126.26 30.8711 126.684 30.8711C126.996 30.8711 127.273 30.8483 127.514 30.8027V32.9414C126.96 33.1107 126.391 33.1953 125.805 33.1953C123.826 33.1953 122.816 32.196 122.777 30.1973V24.5039H121.234V22.4336H122.777V19.8359H125.6ZM136.674 19.875V22.4336H138.646V23.8301H136.674V30.3828C136.674 30.806 136.762 31.125 136.938 31.3398C137.113 31.5482 137.413 31.6523 137.836 31.6523C138.044 31.6523 138.331 31.6133 138.695 31.5352V33C138.22 33.1302 137.758 33.1953 137.309 33.1953C136.501 33.1953 135.893 32.9512 135.482 32.4629C135.072 31.9746 134.867 31.2812 134.867 30.3828V23.8301H132.943V22.4336H134.867V19.875H136.674ZM145.15 33.1953C143.718 33.1953 142.553 32.7266 141.654 31.7891C140.756 30.8451 140.307 29.5853 140.307 28.0098V27.6777C140.307 26.6296 140.505 25.6953 140.902 24.875C141.306 24.0482 141.866 23.4036 142.582 22.9414C143.305 22.4727 144.086 22.2383 144.926 22.2383C146.299 22.2383 147.367 22.6908 148.129 23.5957C148.891 24.5007 149.271 25.7962 149.271 27.4824V28.2344H142.113C142.139 29.276 142.442 30.1191 143.021 30.7637C143.607 31.4017 144.35 31.7207 145.248 31.7207C145.886 31.7207 146.426 31.5905 146.869 31.3301C147.312 31.0697 147.699 30.7246 148.031 30.2949L149.135 31.1543C148.249 32.515 146.921 33.1953 145.15 33.1953ZM144.926 23.7227C144.197 23.7227 143.585 23.9896 143.09 24.5234C142.595 25.0508 142.289 25.793 142.172 26.75H147.465V26.6133C147.413 25.6953 147.165 24.9857 146.723 24.4844C146.28 23.9766 145.681 23.7227 144.926 23.7227ZM157.895 33C157.79 32.7917 157.706 32.4206 157.641 31.8867C156.801 32.7591 155.798 33.1953 154.633 33.1953C153.591 33.1953 152.735 32.9023 152.064 32.3164C151.4 31.724 151.068 30.9753 151.068 30.0703C151.068 28.9701 151.485 28.1172 152.318 27.5117C153.158 26.8997 154.337 26.5938 155.854 26.5938H157.611V25.7637C157.611 25.1322 157.423 24.6309 157.045 24.2598C156.667 23.8822 156.111 23.6934 155.375 23.6934C154.73 23.6934 154.19 23.8561 153.754 24.1816C153.318 24.5072 153.1 24.901 153.1 25.3633H151.283C151.283 24.8359 151.469 24.3281 151.84 23.8398C152.217 23.3451 152.725 22.9544 153.363 22.668C154.008 22.3815 154.714 22.2383 155.482 22.2383C156.7 22.2383 157.654 22.5443 158.344 23.1562C159.034 23.7617 159.392 24.5983 159.418 25.666V30.5293C159.418 31.4993 159.542 32.2708 159.789 32.8438V33H157.895ZM154.896 31.623C155.463 31.623 156 31.4766 156.508 31.1836C157.016 30.8906 157.383 30.5098 157.611 30.041V27.873H156.195C153.982 27.873 152.875 28.5208 152.875 29.8164C152.875 30.3828 153.064 30.8255 153.441 31.1445C153.819 31.4635 154.304 31.623 154.896 31.623ZM163.949 22.4336L163.998 23.6055C164.773 22.694 165.818 22.2383 167.133 22.2383C168.611 22.2383 169.617 22.8047 170.15 23.9375C170.502 23.4297 170.958 23.0195 171.518 22.707C172.084 22.3945 172.751 22.2383 173.52 22.2383C175.837 22.2383 177.016 23.4655 177.055 25.9199V33H175.248V26.0273C175.248 25.2721 175.076 24.709 174.73 24.3379C174.385 23.9603 173.806 23.7715 172.992 23.7715C172.322 23.7715 171.765 23.9733 171.322 24.377C170.88 24.7741 170.622 25.3112 170.551 25.9883V33H168.734V26.0762C168.734 24.5397 167.982 23.7715 166.479 23.7715C165.294 23.7715 164.483 24.276 164.047 25.2852V33H162.24V22.4336H163.949ZM185.941 30.1973C185.941 29.709 185.756 29.3314 185.385 29.0645C185.02 28.791 184.379 28.5566 183.461 28.3613C182.549 28.166 181.824 27.9316 181.283 27.6582C180.749 27.3848 180.352 27.0592 180.092 26.6816C179.838 26.304 179.711 25.8548 179.711 25.334C179.711 24.4681 180.076 23.7357 180.805 23.1367C181.54 22.5378 182.478 22.2383 183.617 22.2383C184.815 22.2383 185.785 22.5475 186.527 23.166C187.276 23.7845 187.65 24.5755 187.65 25.5391H185.834C185.834 25.0443 185.622 24.6178 185.199 24.2598C184.783 23.9017 184.255 23.7227 183.617 23.7227C182.96 23.7227 182.445 23.8659 182.074 24.1523C181.703 24.4388 181.518 24.8132 181.518 25.2754C181.518 25.7116 181.69 26.0404 182.035 26.2617C182.38 26.4831 183.002 26.6947 183.9 26.8965C184.805 27.0983 185.538 27.3392 186.098 27.6191C186.658 27.8991 187.071 28.2376 187.338 28.6348C187.611 29.0254 187.748 29.5039 187.748 30.0703C187.748 31.0143 187.37 31.7728 186.615 32.3457C185.86 32.9121 184.88 33.1953 183.676 33.1953C182.829 33.1953 182.081 33.0456 181.43 32.7461C180.779 32.4466 180.268 32.0299 179.896 31.4961C179.532 30.9557 179.35 30.373 179.35 29.748H181.156C181.189 30.3535 181.43 30.8353 181.879 31.1934C182.335 31.5449 182.934 31.7207 183.676 31.7207C184.359 31.7207 184.906 31.584 185.316 31.3105C185.733 31.0306 185.941 30.6595 185.941 30.1973ZM201.586 33C201.482 32.7917 201.397 32.4206 201.332 31.8867C200.492 32.7591 199.49 33.1953 198.324 33.1953C197.283 33.1953 196.426 32.9023 195.756 32.3164C195.092 31.724 194.76 30.9753 194.76 30.0703C194.76 28.9701 195.176 28.1172 196.01 27.5117C196.85 26.8997 198.028 26.5938 199.545 26.5938H201.303V25.7637C201.303 25.1322 201.114 24.6309 200.736 24.2598C200.359 23.8822 199.802 23.6934 199.066 23.6934C198.422 23.6934 197.882 23.8561 197.445 24.1816C197.009 24.5072 196.791 24.901 196.791 25.3633H194.975C194.975 24.8359 195.16 24.3281 195.531 23.8398C195.909 23.3451 196.417 22.9544 197.055 22.668C197.699 22.3815 198.406 22.2383 199.174 22.2383C200.391 22.2383 201.345 22.5443 202.035 23.1562C202.725 23.7617 203.083 24.5983 203.109 25.666V30.5293C203.109 31.4993 203.233 32.2708 203.48 32.8438V33H201.586ZM198.588 31.623C199.154 31.623 199.691 31.4766 200.199 31.1836C200.707 30.8906 201.075 30.5098 201.303 30.041V27.873H199.887C197.673 27.873 196.566 28.5208 196.566 29.8164C196.566 30.3828 196.755 30.8255 197.133 31.1445C197.51 31.4635 197.995 31.623 198.588 31.623ZM210.18 31.7207C210.824 31.7207 211.387 31.5254 211.869 31.1348C212.351 30.7441 212.618 30.2559 212.67 29.6699H214.379C214.346 30.2754 214.138 30.8516 213.754 31.3984C213.37 31.9453 212.855 32.3815 212.211 32.707C211.573 33.0326 210.896 33.1953 210.18 33.1953C208.741 33.1953 207.595 32.7168 206.742 31.7598C205.896 30.7962 205.473 29.4811 205.473 27.8145V27.5117C205.473 26.4831 205.661 25.5684 206.039 24.7676C206.417 23.9668 206.957 23.3451 207.66 22.9023C208.37 22.4596 209.206 22.2383 210.17 22.2383C211.355 22.2383 212.338 22.5931 213.119 23.3027C213.907 24.0124 214.327 24.9336 214.379 26.0664H212.67C212.618 25.3828 212.357 24.8229 211.889 24.3867C211.426 23.944 210.854 23.7227 210.17 23.7227C209.252 23.7227 208.539 24.0547 208.031 24.7188C207.53 25.3763 207.279 26.3301 207.279 27.5801V27.9219C207.279 29.1393 207.53 30.0768 208.031 30.7344C208.533 31.3919 209.249 31.7207 210.18 31.7207ZM221.518 24.0547C221.244 24.0091 220.948 23.9863 220.629 23.9863C219.444 23.9863 218.64 24.4909 218.217 25.5V33H216.41V22.4336H218.168L218.197 23.6543C218.79 22.7103 219.63 22.2383 220.717 22.2383C221.068 22.2383 221.335 22.2839 221.518 22.375V24.0547ZM222.514 27.6191C222.514 26.584 222.715 25.653 223.119 24.8262C223.529 23.9993 224.096 23.3613 224.818 22.9121C225.548 22.4629 226.378 22.2383 227.309 22.2383C228.747 22.2383 229.91 22.7363 230.795 23.7324C231.687 24.7285 232.133 26.0534 232.133 27.707V27.834C232.133 28.8626 231.934 29.7871 231.537 30.6074C231.146 31.4212 230.583 32.056 229.848 32.5117C229.118 32.9674 228.279 33.1953 227.328 33.1953C225.896 33.1953 224.734 32.6973 223.842 31.7012C222.956 30.7051 222.514 29.3867 222.514 27.7461V27.6191ZM224.33 27.834C224.33 29.0059 224.6 29.9466 225.141 30.6562C225.688 31.3659 226.417 31.7207 227.328 31.7207C228.246 31.7207 228.975 31.3626 229.516 30.6465C230.056 29.9238 230.326 28.9147 230.326 27.6191C230.326 26.4603 230.049 25.5228 229.496 24.8066C228.949 24.084 228.22 23.7227 227.309 23.7227C226.417 23.7227 225.697 24.0775 225.15 24.7871C224.604 25.4967 224.33 26.5124 224.33 27.834ZM240.551 30.1973C240.551 29.709 240.365 29.3314 239.994 29.0645C239.63 28.791 238.988 28.5566 238.07 28.3613C237.159 28.166 236.433 27.9316 235.893 27.6582C235.359 27.3848 234.962 27.0592 234.701 26.6816C234.447 26.304 234.32 25.8548 234.32 25.334C234.32 24.4681 234.685 23.7357 235.414 23.1367C236.15 22.5378 237.087 22.2383 238.227 22.2383C239.424 22.2383 240.395 22.5475 241.137 23.166C241.885 23.7845 242.26 24.5755 242.26 25.5391H240.443C240.443 25.0443 240.232 24.6178 239.809 24.2598C239.392 23.9017 238.865 23.7227 238.227 23.7227C237.569 23.7227 237.055 23.8659 236.684 24.1523C236.312 24.4388 236.127 24.8132 236.127 25.2754C236.127 25.7116 236.299 26.0404 236.645 26.2617C236.99 26.4831 237.611 26.6947 238.51 26.8965C239.415 27.0983 240.147 27.3392 240.707 27.6191C241.267 27.8991 241.68 28.2376 241.947 28.6348C242.221 29.0254 242.357 29.5039 242.357 30.0703C242.357 31.0143 241.98 31.7728 241.225 32.3457C240.469 32.9121 239.49 33.1953 238.285 33.1953C237.439 33.1953 236.69 33.0456 236.039 32.7461C235.388 32.4466 234.877 32.0299 234.506 31.4961C234.141 30.9557 233.959 30.373 233.959 29.748H235.766C235.798 30.3535 236.039 30.8353 236.488 31.1934C236.944 31.5449 237.543 31.7207 238.285 31.7207C238.969 31.7207 239.516 31.584 239.926 31.3105C240.342 31.0306 240.551 30.6595 240.551 30.1973ZM250.863 30.1973C250.863 29.709 250.678 29.3314 250.307 29.0645C249.942 28.791 249.301 28.5566 248.383 28.3613C247.471 28.166 246.745 27.9316 246.205 27.6582C245.671 27.3848 245.274 27.0592 245.014 26.6816C244.76 26.304 244.633 25.8548 244.633 25.334C244.633 24.4681 244.997 23.7357 245.727 23.1367C246.462 22.5378 247.4 22.2383 248.539 22.2383C249.737 22.2383 250.707 22.5475 251.449 23.166C252.198 23.7845 252.572 24.5755 252.572 25.5391H250.756C250.756 25.0443 250.544 24.6178 250.121 24.2598C249.704 23.9017 249.177 23.7227 248.539 23.7227C247.882 23.7227 247.367 23.8659 246.996 24.1523C246.625 24.4388 246.439 24.8132 246.439 25.2754C246.439 25.7116 246.612 26.0404 246.957 26.2617C247.302 26.4831 247.924 26.6947 248.822 26.8965C249.727 27.0983 250.46 27.3392 251.02 27.6191C251.579 27.8991 251.993 28.2376 252.26 28.6348C252.533 29.0254 252.67 29.5039 252.67 30.0703C252.67 31.0143 252.292 31.7728 251.537 32.3457C250.782 32.9121 249.802 33.1953 248.598 33.1953C247.751 33.1953 247.003 33.0456 246.352 32.7461C245.701 32.4466 245.189 32.0299 244.818 31.4961C244.454 30.9557 244.271 30.373 244.271 29.748H246.078C246.111 30.3535 246.352 30.8353 246.801 31.1934C247.257 31.5449 247.855 31.7207 248.598 31.7207C249.281 31.7207 249.828 31.584 250.238 31.3105C250.655 31.0306 250.863 30.6595 250.863 30.1973ZM262.436 19.875V22.4336H264.408V23.8301H262.436V30.3828C262.436 30.806 262.523 31.125 262.699 31.3398C262.875 31.5482 263.174 31.6523 263.598 31.6523C263.806 31.6523 264.092 31.6133 264.457 31.5352V33C263.982 33.1302 263.52 33.1953 263.07 33.1953C262.263 33.1953 261.654 32.9512 261.244 32.4629C260.834 31.9746 260.629 31.2812 260.629 30.3828V23.8301H258.705V22.4336H260.629V19.875H262.436ZM268.334 23.7129C269.135 22.7298 270.176 22.2383 271.459 22.2383C273.692 22.2383 274.818 23.498 274.838 26.0176V33H273.031V26.0078C273.025 25.2461 272.849 24.6829 272.504 24.3184C272.165 23.9538 271.635 23.7715 270.912 23.7715C270.326 23.7715 269.812 23.9277 269.369 24.2402C268.926 24.5527 268.581 24.9629 268.334 25.4707V33H266.527V18H268.334V23.7129ZM281.928 33.1953C280.495 33.1953 279.33 32.7266 278.432 31.7891C277.533 30.8451 277.084 29.5853 277.084 28.0098V27.6777C277.084 26.6296 277.283 25.6953 277.68 24.875C278.083 24.0482 278.643 23.4036 279.359 22.9414C280.082 22.4727 280.863 22.2383 281.703 22.2383C283.077 22.2383 284.145 22.6908 284.906 23.5957C285.668 24.5007 286.049 25.7962 286.049 27.4824V28.2344H278.891C278.917 29.276 279.219 30.1191 279.799 30.7637C280.385 31.4017 281.127 31.7207 282.025 31.7207C282.663 31.7207 283.204 31.5905 283.646 31.3301C284.089 31.0697 284.477 30.7246 284.809 30.2949L285.912 31.1543C285.027 32.515 283.699 33.1953 281.928 33.1953ZM281.703 23.7227C280.974 23.7227 280.362 23.9896 279.867 24.5234C279.372 25.0508 279.066 25.793 278.949 26.75H284.242V26.6133C284.19 25.6953 283.943 24.9857 283.5 24.4844C283.057 23.9766 282.458 23.7227 281.703 23.7227ZM302.465 30.5098L304.496 22.4336H306.303L303.227 33H301.762L299.193 24.9922L296.693 33H295.229L292.162 22.4336H293.959L296.039 30.3438L298.5 22.4336H299.955L302.465 30.5098ZM307.67 27.6191C307.67 26.584 307.872 25.653 308.275 24.8262C308.686 23.9993 309.252 23.3613 309.975 22.9121C310.704 22.4629 311.534 22.2383 312.465 22.2383C313.904 22.2383 315.066 22.7363 315.951 23.7324C316.843 24.7285 317.289 26.0534 317.289 27.707V27.834C317.289 28.8626 317.09 29.7871 316.693 30.6074C316.303 31.4212 315.74 32.056 315.004 32.5117C314.275 32.9674 313.435 33.1953 312.484 33.1953C311.052 33.1953 309.89 32.6973 308.998 31.7012C308.113 30.7051 307.67 29.3867 307.67 27.7461V27.6191ZM309.486 27.834C309.486 29.0059 309.757 29.9466 310.297 30.6562C310.844 31.3659 311.573 31.7207 312.484 31.7207C313.402 31.7207 314.132 31.3626 314.672 30.6465C315.212 29.9238 315.482 28.9147 315.482 27.6191C315.482 26.4603 315.206 25.5228 314.652 24.8066C314.105 24.084 313.376 23.7227 312.465 23.7227C311.573 23.7227 310.854 24.0775 310.307 24.7871C309.76 25.4967 309.486 26.5124 309.486 27.834ZM324.662 24.0547C324.389 24.0091 324.092 23.9863 323.773 23.9863C322.589 23.9863 321.785 24.4909 321.361 25.5V33H319.555V22.4336H321.312L321.342 23.6543C321.934 22.7103 322.774 22.2383 323.861 22.2383C324.213 22.2383 324.48 22.2839 324.662 22.375V24.0547ZM328.295 33H326.488V18H328.295V33ZM330.756 27.6289C330.756 26.0078 331.14 24.7057 331.908 23.7227C332.676 22.7331 333.682 22.2383 334.926 22.2383C336.163 22.2383 337.143 22.6615 337.865 23.5078V18H339.672V33H338.012L337.924 31.8672C337.201 32.7526 336.195 33.1953 334.906 33.1953C333.682 33.1953 332.683 32.694 331.908 31.6914C331.14 30.6888 330.756 29.3802 330.756 27.7656V27.6289ZM332.562 27.834C332.562 29.0319 332.81 29.9694 333.305 30.6465C333.799 31.3236 334.483 31.6621 335.355 31.6621C336.501 31.6621 337.338 31.1478 337.865 30.1191V25.2656C337.325 24.2695 336.495 23.7715 335.375 23.7715C334.49 23.7715 333.799 24.1133 333.305 24.7969C332.81 25.4805 332.562 26.4928 332.562 27.834Z" fill="white"/>
<path fill-rule="evenodd" clip-rule="evenodd" d="M0 26.5C0 15.1782 9.17819 6 20.5 6C31.8218 6 41 15.1782 41 26.5C41 37.8218 31.8218 47 20.5 47C9.17819 47 0 37.8218 0 26.5ZM5.51913 20.7467C7.14548 16.5137 10.5139 13.1439 14.7469 11.5169L17.015 16.906C15.6155 17.416 14.344 18.2249 13.2889 19.2764C12.2339 20.3279 11.4207 21.5967 10.906 22.9945L5.51913 20.7467ZM14.7301 41.4744C10.5054 39.8456 7.14397 36.4806 5.51959 32.2542L10.906 30.026C11.4171 31.4201 12.2269 32.6856 13.2787 33.7338C14.3304 34.782 15.5986 35.5876 16.9945 36.094L14.7301 41.4744ZM35.4744 32.2699C33.8479 36.4883 30.4904 39.8466 26.2719 41.4737L24.0465 36.094C25.4361 35.5791 26.697 34.7678 27.7413 33.7163C28.7857 32.6649 29.5885 31.3986 30.094 30.0055L35.4744 32.2699ZM26.28 11.5273C30.4941 13.1558 33.8481 16.5127 35.4737 20.7281L30.094 22.9535C29.5805 21.572 28.7742 20.3181 27.7303 19.2777C26.6864 18.2374 25.4297 17.4353 24.0465 16.9265L26.28 11.5273ZM14.35 26.5C14.35 29.903 17.097 32.65 20.5 32.65C23.903 32.65 26.65 29.903 26.65 26.5C26.65 23.097 23.903 20.35 20.5 20.35C17.097 20.35 14.35 23.097 14.35 26.5Z" fill="white"/>
</svg>
