<svg width="20" height="20" viewBox="0 0 20 20" fill="none" xmlns="http://www.w3.org/2000/svg">
<g clip-path="url(#clip0)">
<path d="M13.2588 10.1025L20.0013 14.365V5.65997L13.2588 10.1025Z" fill="white"/>
<path d="M0 5.65997V14.365L6.7425 10.1025L0 5.65997Z" fill="white"/>
<path d="M18.7491 3.125H1.24912C0.625371 3.125 0.130371 3.59 0.0366211 4.18875L9.99912 10.7525L19.9616 4.18875C19.8679 3.59 19.3729 3.125 18.7491 3.125Z" fill="white"/>
<path d="M12.113 10.8576L10.3443 12.0226C10.2393 12.0913 10.1205 12.1251 10.0005 12.1251C9.88053 12.1251 9.76178 12.0913 9.65678 12.0226L7.88803 10.8563L0.0405273 15.8201C0.136777 16.4138 0.629277 16.8751 1.25053 16.8751H18.7505C19.3718 16.8751 19.8643 16.4138 19.9605 15.8201L12.113 10.8576Z" fill="white"/>
</g>
<defs>
<clipPath id="clip0">
<rect width="20" height="20" fill="white"/>
</clipPath>
</defs>
</svg>
