<svg width="60" height="60" viewBox="0 0 60 60" fill="none" xmlns="http://www.w3.org/2000/svg">
<path d="M35.7422 30C35.7422 33.1714 33.1714 35.7422 30 35.7422C26.8286 35.7422 24.2578 33.1714 24.2578 30C24.2578 26.8286 26.8286 24.2578 30 24.2578C33.1714 24.2578 35.7422 26.8286 35.7422 30Z" fill="white"/>
<path d="M43.4293 19.8404C43.1533 19.0924 42.7129 18.4154 42.1407 17.8597C41.585 17.2875 40.9084 16.8471 40.16 16.5711C39.553 16.3353 38.6411 16.0547 36.9616 15.9783C35.1447 15.8954 34.6 15.8776 30.0004 15.8776C25.4003 15.8776 24.8556 15.895 23.0392 15.9778C21.3596 16.0547 20.4473 16.3353 19.8408 16.5711C19.0923 16.8471 18.4153 17.2875 17.86 17.8597C17.2878 18.4154 16.8474 19.092 16.571 19.8404C16.3352 20.4474 16.0546 21.3597 15.9781 23.0393C15.8953 24.8557 15.8774 25.4004 15.8774 30.0005C15.8774 34.6001 15.8953 35.1448 15.9781 36.9617C16.0546 38.6412 16.3352 39.5531 16.571 40.1601C16.8474 40.9085 17.2874 41.5851 17.8596 42.1408C18.4153 42.713 19.0919 43.1534 19.8403 43.4294C20.4473 43.6657 21.3596 43.9463 23.0392 44.0227C24.8556 44.1056 25.3998 44.123 29.9999 44.123C34.6004 44.123 35.1452 44.1056 36.9611 44.0227C38.6407 43.9463 39.553 43.6657 40.16 43.4294C41.6624 42.8499 42.8498 41.6625 43.4293 40.1601C43.6651 39.5531 43.9457 38.6412 44.0226 36.9617C44.1054 35.1448 44.1228 34.6001 44.1228 30.0005C44.1228 25.4004 44.1054 24.8557 44.0226 23.0393C43.9461 21.3597 43.6655 20.4474 43.4293 19.8404ZM30.0004 38.8459C25.1147 38.8459 21.1541 34.8857 21.1541 30C21.1541 25.1143 25.1147 21.1542 30.0004 21.1542C34.8856 21.1542 38.8462 25.1143 38.8462 30C38.8462 34.8857 34.8856 38.8459 30.0004 38.8459ZM39.1959 22.8717C38.0543 22.8717 37.1287 21.9461 37.1287 20.8045C37.1287 19.6628 38.0543 18.7372 39.1959 18.7372C40.3376 18.7372 41.2632 19.6628 41.2632 20.8045C41.2627 21.9461 40.3376 22.8717 39.1959 22.8717Z" fill="white"/>
<path d="M30 0C13.434 0 0 13.434 0 30C0 46.566 13.434 60 30 60C46.566 60 60 46.566 60 30C60 13.434 46.566 0 30 0ZM47.1227 37.1022C47.0393 38.936 46.7477 40.188 46.322 41.2839C45.4271 43.5979 43.5979 45.4271 41.2839 46.322C40.1884 46.7477 38.936 47.0389 37.1027 47.1227C35.2657 47.2064 34.6788 47.2266 30.0005 47.2266C25.3217 47.2266 24.7353 47.2064 22.8978 47.1227C21.0645 47.0389 19.812 46.7477 18.7166 46.322C17.5667 45.8894 16.5257 45.2115 15.6651 44.3349C14.789 43.4747 14.111 42.4333 13.6784 41.2839C13.2527 40.1884 12.9611 38.936 12.8778 37.1027C12.7931 35.2652 12.7734 34.6783 12.7734 30C12.7734 25.3217 12.7931 24.7348 12.8773 22.8978C12.9607 21.064 13.2518 19.812 13.6775 18.7161C14.1101 17.5667 14.7885 16.5253 15.6651 15.6651C16.5253 14.7885 17.5667 14.1106 18.7161 13.678C19.812 13.2523 21.064 12.9611 22.8978 12.8773C24.7348 12.7936 25.3217 12.7734 30 12.7734C34.6783 12.7734 35.2652 12.7936 37.1022 12.8778C38.936 12.9611 40.188 13.2523 41.2839 13.6775C42.4333 14.1101 43.4747 14.7885 44.3353 15.6651C45.2115 16.5257 45.8899 17.5667 46.322 18.7161C46.7482 19.812 47.0393 21.064 47.1231 22.8978C47.2069 24.7348 47.2266 25.3217 47.2266 30C47.2266 34.6783 47.2069 35.2652 47.1227 37.1022Z" fill="white"/>
</svg>
