<svg width="20" height="20" viewBox="0 0 20 20" fill="none" xmlns="http://www.w3.org/2000/svg">
<g clip-path="url(#clip0)">
<path d="M10.251 0.00410749C6.18946 -0.13277 2.854 3.11892 2.854 7.14959C2.854 11.724 7.24383 15.0437 9.70432 19.818C9.82924 20.0604 10.1782 20.0607 10.3035 19.8183C12.5294 15.5225 16.3337 12.6418 17.0387 8.50326C17.7687 4.22064 14.5929 0.150487 10.251 0.00410749ZM10.0036 10.8946C7.9353 10.8946 6.25858 9.21783 6.25858 7.14959C6.25858 5.08136 7.93534 3.40459 10.0036 3.40459C12.0719 3.40459 13.7486 5.08136 13.7486 7.14959C13.7486 9.21783 12.0719 10.8946 10.0036 10.8946Z" fill="white"/>
</g>
<defs>
<clipPath id="clip0">
<rect width="20" height="20" fill="white"/>
</clipPath>
</defs>
</svg>
