<svg width="14" height="14" viewBox="0 0 14 14" fill="none" xmlns="http://www.w3.org/2000/svg">
<g clip-path="url(#clip0)">
<path d="M13.6691 7.96415C13.5259 7.92837 13.3828 7.96415 13.2576 8.05361C12.7924 8.44722 12.2556 8.76927 11.6652 8.98396C11.1106 9.19866 10.5023 9.30601 9.85818 9.30601C8.40897 9.30601 7.08501 8.71559 6.13676 7.76735C5.18851 6.8191 4.5981 5.49513 4.5981 4.04593C4.5981 3.43762 4.70545 2.8472 4.88436 2.31046C5.08117 1.73793 5.36743 1.21908 5.74315 0.771797C5.90417 0.574991 5.86839 0.288728 5.67158 0.127705C5.54634 0.0382482 5.40321 0.00246539 5.26008 0.0382482C3.73931 0.449751 2.41534 1.36221 1.4671 2.57883C0.554634 3.77756 0 5.26255 0 6.89067C0 8.84083 0.787223 10.6121 2.07541 11.9003C3.36359 13.1884 5.13484 13.9757 7.08501 13.9757C8.73102 13.9757 10.2518 13.4031 11.4684 12.4549C12.7029 11.4888 13.5975 10.1111 13.9732 8.53668C14.0627 8.26831 13.9195 8.01783 13.6691 7.96415ZM10.9317 11.7035C9.89396 12.5265 8.56999 13.0274 7.12079 13.0274C5.4211 13.0274 3.88244 12.3297 2.77317 11.2204C1.6639 10.1111 0.966137 8.57246 0.966137 6.87277C0.966137 5.45935 1.43131 4.17117 2.23643 3.13347C2.79106 2.41781 3.48883 1.82739 4.29394 1.41589C4.20449 1.61269 4.11503 1.8095 4.04346 2.0242C3.81087 2.66829 3.70353 3.34816 3.70353 4.06382C3.70353 5.76351 4.40129 7.32006 5.51056 8.42933C6.61983 9.5386 8.17638 10.2364 9.87607 10.2364C10.6275 10.2364 11.3432 10.1111 12.0051 9.86064C12.2377 9.77119 12.4703 9.68173 12.685 9.57438C12.2556 10.3974 11.6652 11.1309 10.9317 11.7035Z" fill="white"/>
</g>
<defs>
<clipPath id="clip0">
<rect width="14" height="14" fill="white"/>
</clipPath>
</defs>
</svg>
