<svg width="84" height="16" viewBox="0 0 84 16" fill="none" xmlns="http://www.w3.org/2000/svg">
<path d="M8 0L10.472 5.008L16 5.816L12 9.712L12.944 15.216L8 12.616L3.056 15.216L4 9.712L0 5.816L5.528 5.008L8 0Z" fill="#C72535"/>
<path d="M25 0L27.472 5.008L33 5.816L29 9.712L29.944 15.216L25 12.616L20.056 15.216L21 9.712L17 5.816L22.528 5.008L25 0Z" fill="#C72535"/>
<path d="M42 0L44.472 5.008L50 5.816L46 9.712L46.944 15.216L42 12.616L37.056 15.216L38 9.712L34 5.816L39.528 5.008L42 0Z" fill="#C72535"/>
<path d="M59 0L61.472 5.008L67 5.816L63 9.712L63.944 15.216L59 12.616L54.056 15.216L55 9.712L51 5.816L56.528 5.008L59 0Z" fill="#C72535"/>
<path d="M76 0L78.472 5.008L84 5.816L80 9.712L80.944 15.216L76 12.616L71.056 15.216L72 9.712L68 5.816L73.528 5.008L76 0Z" fill="#C72535"/>
</svg>
