<svg width="25" height="23" viewBox="0 0 25 23" fill="none" xmlns="http://www.w3.org/2000/svg">
<path d="M0.855482 1.84449C1.18314 1.39982 1.67462 1.16578 2.32993 1.11897C3.52353 1.02535 4.20225 1.58705 4.36607 2.80405C5.0916 7.69548 5.88733 11.838 6.72987 15.2315L11.8553 5.4721C12.3234 4.58275 12.9085 4.11467 13.6106 4.06787C14.6404 3.99765 15.2723 4.65296 15.5297 6.0338C16.1148 9.14652 16.8638 11.7912 17.7531 14.0379C18.3616 8.09334 19.3914 3.81042 20.8424 1.16578C21.1935 0.510469 21.7084 0.182815 22.3871 0.136008C22.9254 0.0891997 23.4169 0.253027 23.8616 0.604086C24.3062 0.955145 24.5403 1.39982 24.5871 1.93811C24.6105 2.35938 24.5403 2.71044 24.353 3.0615C23.4403 4.74658 22.6914 7.57846 22.0829 11.5103C21.4978 15.3252 21.2871 18.2975 21.4275 20.4272C21.4744 21.0123 21.3807 21.5272 21.1467 21.9719C20.8658 22.4868 20.4446 22.7676 19.9063 22.8144C19.2978 22.8612 18.6659 22.5804 18.0574 21.9485C15.8808 19.7251 14.1489 16.4017 12.8851 11.9784C11.3639 14.9741 10.2405 17.2209 9.51494 18.7187C8.13411 21.3634 6.96391 22.7208 5.98095 22.791C5.34904 22.8378 4.81075 22.2995 4.34267 21.1761C3.14907 18.1102 1.86185 12.189 0.481021 3.41256C0.41081 2.80406 0.527827 2.26576 0.855482 1.84449Z" fill="white"/>
</svg>
